<?xml version="1.0" encoding="UTF-8"?>
<svg width="1024" height="1024" viewBox="0 0 1024 1024" fill="none" xmlns="http://www.w3.org/2000/svg">
  <defs>
    <linearGradient id="g1" x1="0" y1="0" x2="1" y2="1">
      <stop offset="0%" stop-color="#22D3EE"/>
      <stop offset="100%" stop-color="#3B82F6"/>
    </linearGradient>
    <radialGradient id="glow" cx="50%" cy="50%" r="60%">
      <stop offset="0%" stop-color="#A5F3FC" stop-opacity="0.9"/>
      <stop offset="100%" stop-color="#A5F3FC" stop-opacity="0"/>
    </radialGradient>
  </defs>
  <!-- Transparent background by default -->
  <!-- Globe + connecting arcs to symbolize unlimited/global telephony -->
  <g transform="translate(128,128)">
    <circle cx="384" cy="384" r="360" fill="url(#glow)"/>
    <circle cx="384" cy="384" r="280" stroke="url(#g1)" stroke-width="16"/>
    <ellipse cx="384" cy="384" rx="300" ry="120" stroke="url(#g1)" stroke-width="12" fill="none"/>
    <ellipse cx="384" cy="384" rx="220" ry="86" stroke="url(#g1)" stroke-width="10" fill="none" transform="rotate(26 384 384)"/>
    <ellipse cx="384" cy="384" rx="220" ry="86" stroke="url(#g1)" stroke-width="10" fill="none" transform="rotate(-26 384 384)"/>
    <!-- Nodes -->
    <circle cx="164" cy="384" r="14" fill="#22D3EE"/>
    <circle cx="604" cy="284" r="14" fill="#22D3EE"/>
    <circle cx="564" cy="564" r="14" fill="#22D3EE"/>
    <circle cx="304" cy="244" r="14" fill="#22D3EE"/>
    <!-- Phone symbol minimal -->
    <path d="M420 510c-84-42-148-106-190-190 0 0-10-22 6-38l46-46c10-10 26-10 36 0l48 48c10 10 10 26 0 36l-22 22c22 42 50 70 92 92l22-22c10-10 26-10 36 0l48 48c10 10 10 26 0 36l-46 46c-16 16-38 6-38 6z" fill="url(#g1)"/>
  </g>
</svg>
