<?xml version="1.0" encoding="UTF-8"?>
<svg width="1024" height="1024" viewBox="0 0 1024 1024" fill="none" xmlns="http://www.w3.org/2000/svg">
  <defs>
    <linearGradient id="pg" x1="0" y1="0" x2="1" y2="1">
      <stop offset="0%" stop-color="#3B82F6"/>
      <stop offset="100%" stop-color="#22D3EE"/>
    </linearGradient>
  </defs>
  <!-- Powerful trunks: stacked, thick conduits with energy bars -->
  <g transform="translate(128,256)">
    <rect x="40" y="0" width="728" height="96" rx="28" fill="url(#pg)"/>
    <rect x="40" y="140" width="728" height="96" rx="28" fill="url(#pg)" opacity=".9"/>
    <rect x="40" y="280" width="728" height="96" rx="28" fill="url(#pg)" opacity=".8"/>
    <!-- throughput ticks -->
    <g fill="#fff" fill-opacity=".85">
      <rect x="80" y="34" width="36" height="28" rx="6"/>
      <rect x="132" y="34" width="36" height="28" rx="6"/>
      <rect x="184" y="34" width="36" height="28" rx="6"/>
      <rect x="80" y="174" width="36" height="28" rx="6"/>
      <rect x="132" y="174" width="36" height="28" rx="6"/>
      <rect x="184" y="174" width="36" height="28" rx="6"/>
      <rect x="80" y="314" width="36" height="28" rx="6"/>
      <rect x="132" y="314" width="36" height="28" rx="6"/>
      <rect x="184" y="314" width="36" height="28" rx="6"/>
    </g>
  </g>
</svg>
